<?xml version="1.0" encoding="utf-8"?>
<!-- Generator: Adobe Illustrator 24.1.0, SVG Export Plug-In . SVG Version: 6.00 Build 0)  -->
<svg version="1.1"
	 id="svg681" inkscape:version="1.0.1 (c497b03c, 2020-09-10)" sodipodi:docname="Logo_2.svg" xmlns:cc="http://creativecommons.org/ns#" xmlns:dc="http://purl.org/dc/elements/1.1/" xmlns:inkscape="http://www.inkscape.org/namespaces/inkscape" xmlns:rdf="http://www.w3.org/1999/02/22-rdf-syntax-ns#" xmlns:sodipodi="http://sodipodi.sourceforge.net/DTD/sodipodi-0.dtd" xmlns:svg="http://www.w3.org/2000/svg"
	 xmlns="http://www.w3.org/2000/svg" xmlns:xlink="http://www.w3.org/1999/xlink" x="0px" y="0px" viewBox="0 0 502.2 502.2"
	 style="enable-background:new 0 0 502.2 502.2;" xml:space="preserve">
<style type="text/css">
	.st0{fill:none;stroke:#0A1428;stroke-width:21.954;stroke-linejoin:round;stroke-miterlimit:175.6319;}
	.st1{fill:none;stroke:#00AEEF;stroke-width:21.954;stroke-miterlimit:70.2528;}
</style>
<sodipodi:namedview  bordercolor="#666666" borderopacity="1.0" id="base" inkscape:current-layer="layer1" inkscape:cx="400" inkscape:cy="560" inkscape:document-rotation="0" inkscape:document-units="mm" inkscape:pageopacity="0.0" inkscape:pageshadow="2" inkscape:window-height="1036" inkscape:window-maximized="1" inkscape:window-width="1920" inkscape:window-x="0" inkscape:window-y="22" inkscape:zoom="0.35" pagecolor="#ffffff" showgrid="false">
	</sodipodi:namedview>
<g id="layer1" inkscape:groupmode="layer" inkscape:label="Ebene 1">
	<g id="g534" transform="matrix(6.1959032,0,0,-6.1959032,-1737.5457,416.38636)">
		<g id="g536">
			<g>
				<g id="g538">
					<g id="g544" transform="translate(302.6965,46.1442)">
						<path id="path546" class="st0" d="M32.6-9.2c-0.5,0.9-1.6,1.5-3.1,1.5H7c-1.5,0-2.6-0.5-3.1-1.5c-0.5-0.9-0.4-2.1,0.3-3.4
							L18.3-37l14.1,24.4C33-11.3,33.1-10.1,32.6-9.2z M18.3-7.7v-29.1"/>
					</g>
					<g id="g548" transform="translate(297.6378,28.8464)">
						<path id="path550" class="st1" d="M23.3-40.9c21.4,0,38.8,17.4,38.8,38.8c0,21.4-17.4,38.8-38.8,38.8S-15.4,19.2-15.4-2.2
							C-15.4-23.6,1.9-40.9,23.3-40.9z"/>
					</g>
				</g>
			</g>
		</g>
	</g>
</g>
</svg>
