<?xml version="1.0" encoding="utf-8"?>
<!-- Generator: Adobe Illustrator 24.1.0, SVG Export Plug-In . SVG Version: 6.00 Build 0)  -->
<svg version="1.1"
	 id="svg681" inkscape:version="1.0.1 (c497b03c, 2020-09-10)" sodipodi:docname="Logo_1.svg" xmlns:cc="http://creativecommons.org/ns#" xmlns:dc="http://purl.org/dc/elements/1.1/" xmlns:inkscape="http://www.inkscape.org/namespaces/inkscape" xmlns:rdf="http://www.w3.org/1999/02/22-rdf-syntax-ns#" xmlns:sodipodi="http://sodipodi.sourceforge.net/DTD/sodipodi-0.dtd" xmlns:svg="http://www.w3.org/2000/svg"
	 xmlns="http://www.w3.org/2000/svg" xmlns:xlink="http://www.w3.org/1999/xlink" x="0px" y="0px" viewBox="0 0 540.5 490.5"
	 style="enable-background:new 0 0 540.5 490.5;" xml:space="preserve">
<style type="text/css">
	.st0{opacity:0.1;clip-path:url(#SVGID_2_);}
	.st1{fill:url(#path308_1_);}
	.st2{opacity:0.2;clip-path:url(#SVGID_4_);}
	.st3{fill:url(#path340_1_);}
	.st4{opacity:0.4;clip-path:url(#SVGID_6_);}
	.st5{fill:url(#path372_1_);}
	.st6{fill:url(#path404_1_);}
	.st7{fill:none;stroke:#FFFFFF;stroke-width:7.5;stroke-miterlimit:50;}
</style>
<sodipodi:namedview  bordercolor="#666666" borderopacity="1.0" id="base" inkscape:current-layer="layer1" inkscape:cx="400" inkscape:cy="560" inkscape:document-rotation="0" inkscape:document-units="mm" inkscape:pageopacity="0.0" inkscape:pageshadow="2" inkscape:window-height="989" inkscape:window-maximized="1" inkscape:window-width="1920" inkscape:window-x="1920" inkscape:window-y="22" inkscape:zoom="0.35" pagecolor="#ffffff" showgrid="false">
	</sodipodi:namedview>
<g id="layer1" inkscape:groupmode="layer" inkscape:label="Ebene 1">
	<g id="g282" transform="matrix(1.7638888,0,0,-1.7638889,-419.92208,1000.8492)">
		<g>
			<g id="g284">
				<g id="g290">
					<g id="g292">
					</g>
					<g id="g320">
						<g>
							<defs>
								<rect id="SVGID_1_" x="121" y="183.1" width="540.5" height="490.5"/>
							</defs>
							<clipPath id="SVGID_2_">
								<use xlink:href="#SVGID_1_"  style="overflow:visible;"/>
							</clipPath>
							<g id="g318" class="st0">
								<g id="g316">
									<g id="g314">
										<g id="g312">
											<g id="g310">
												
													<linearGradient id="path308_1_" gradientUnits="userSpaceOnUse" x1="165.2067" y1="185.1628" x2="166.2067" y2="185.1628" gradientTransform="matrix(450.5045 -450.5045 -450.5045 -450.5045 9253.8984 158390.5938)">
													<stop  offset="0" style="stop-color:#38B0E3"/>
													<stop  offset="1" style="stop-color:#1D93D2"/>
												</linearGradient>
												<path id="path308" class="st1" d="M391.3,292.2c70.5,0,127.7,57.2,127.7,127.7c0,70.5-57.2,127.7-127.7,127.7
													c-70.5,0-127.7-57.2-127.7-127.7S320.8,292.2,391.3,292.2"/>
											</g>
										</g>
									</g>
								</g>
							</g>
						</g>
					</g>
				</g>
				<g id="g322">
					<g id="g324">
					</g>
					<g id="g352">
						<g>
							<defs>
								<rect id="SVGID_3_" x="149.2" y="211.3" width="484.2" height="434.2"/>
							</defs>
							<clipPath id="SVGID_4_">
								<use xlink:href="#SVGID_3_"  style="overflow:visible;"/>
							</clipPath>
							<g id="g350" class="st2">
								<g id="g348">
									<g id="g346">
										<g id="g344">
											<g id="g342">
												
													<linearGradient id="path340_1_" gradientUnits="userSpaceOnUse" x1="165.2139" y1="185.1518" x2="166.2139" y2="185.1518" gradientTransform="matrix(394.1915 -394.1915 -394.1915 -394.1915 8138.9141 138642.7812)">
													<stop  offset="0" style="stop-color:#38B0E3"/>
													<stop  offset="1" style="stop-color:#1D93D2"/>
												</linearGradient>
												<path id="path340" class="st3" d="M391.3,308.1c61.7,0,111.7,50,111.7,111.7s-50,111.7-111.7,111.7
													c-61.7,0-111.7-50-111.7-111.7S329.6,308.1,391.3,308.1"/>
											</g>
										</g>
									</g>
								</g>
							</g>
						</g>
					</g>
				</g>
				<g id="g354">
					<g id="g356">
					</g>
					<g id="g384">
						<g>
							<defs>
								<rect id="SVGID_5_" x="177.3" y="239.4" width="427.9" height="377.9"/>
							</defs>
							<clipPath id="SVGID_6_">
								<use xlink:href="#SVGID_5_"  style="overflow:visible;"/>
							</clipPath>
							<g id="g382" class="st4">
								<g id="g380">
									<g id="g378">
										<g id="g376">
											<g id="g374">
												
													<linearGradient id="path372_1_" gradientUnits="userSpaceOnUse" x1="165.2234" y1="185.1372" x2="166.2234" y2="185.1372" gradientTransform="matrix(337.8784 -337.8784 -337.8784 -337.8784 7023.9287 118894.9375)">
													<stop  offset="0" style="stop-color:#38B0E3"/>
													<stop  offset="1" style="stop-color:#1D93D2"/>
												</linearGradient>
												<path id="path372" class="st5" d="M391.3,324.1c52.9,0,95.8,42.9,95.8,95.8c0,52.9-42.9,95.8-95.8,95.8
													c-52.9,0-95.8-42.9-95.8-95.8C295.5,367,338.4,324.1,391.3,324.1"/>
											</g>
										</g>
									</g>
								</g>
							</g>
						</g>
					</g>
				</g>
			</g>
		</g>
	</g>
	<g id="g386" transform="matrix(1.7638888,0,0,-1.7638889,-419.92208,1000.8492)">
		<g id="g388">
			<g id="g394">
				<g id="g396">
					
						<linearGradient id="path404_1_" gradientUnits="userSpaceOnUse" x1="165.2369" y1="185.1167" x2="166.2369" y2="185.1167" gradientTransform="matrix(281.5653 -281.5654 -281.5653 -281.5654 5908.9443 99147.1172)">
						<stop  offset="0" style="stop-color:#38B0E3"/>
						<stop  offset="1" style="stop-color:#1D93D2"/>
					</linearGradient>
					<path id="path404" class="st6" d="M311.5,419.9c0-44.1,35.7-79.8,79.8-79.8l0,0c44.1,0,79.8,35.7,79.8,79.8l0,0
						c0,44.1-35.7,79.8-79.8,79.8l0,0C347.2,499.7,311.5,463.9,311.5,419.9"/>
				</g>
			</g>
		</g>
	</g>
	<g id="g414" transform="matrix(1.7638888,0,0,-1.7638889,125.60287,129.05278)">
		<path id="path416" class="st7" d="M115-51c-1.2,2.1-3.8,3.3-7.1,3.3H56.2c-3.4,0-5.9-1.2-7.1-3.3c-1.2-2.1-1-4.8,0.7-7.6L82-113.2
			l32.3,54.6C116-55.8,116.2-53,115-51z M82-47.7v-65"/>
	</g>
</g>
</svg>
